<?xml version="1.0" standalone="no"?>
<!DOCTYPE svg PUBLIC "-//W3C//DTD SVG 20010904//EN"
 "http://www.w3.org/TR/2001/REC-SVG-20010904/DTD/svg10.dtd">
<svg version="1.0" xmlns="http://www.w3.org/2000/svg"
 width="324.000000pt" height="324.000000pt" viewBox="0 0 324.000000 324.000000"
 preserveAspectRatio="xMidYMid meet">
<metadata>
Created by potrace 1.11, written by Peter Selinger 2001-2013
</metadata>
<g transform="translate(0.000000,324.000000) scale(0.100000,-0.100000)"
fill="#000000" stroke="none">
<path d="M1852 2798 c-17 -17 -15 -51 5 -93 13 -27 23 -35 44 -35 33 0 89 44
89 70 0 26 -29 52 -50 45 -9 -3 -23 1 -30 10 -7 8 -18 15 -24 15 -6 0 -3 -5 7
-11 9 -5 17 -17 17 -25 0 -12 4 -13 21 -4 24 13 49 -2 49 -31 0 -21 -50 -59
-79 -59 -37 0 -67 90 -39 118 7 7 10 12 7 12 -3 0 -10 -5 -17 -12z"/>
<path d="M1360 2710 c-11 -11 -20 -31 -20 -45 0 -14 9 -45 20 -67 11 -23 20
-48 20 -55 0 -31 88 -5 138 40 43 40 18 111 -36 105 -17 -2 -34 5 -49 20 -27
27 -47 28 -73 2z m77 -30 c4 -15 9 -16 33 -7 56 21 82 -39 36 -82 -25 -23 -95
-53 -108 -45 -8 5 -48 109 -48 124 0 6 9 19 20 30 17 17 24 18 41 9 12 -6 23
-19 26 -29z"/>
<path d="M1709 2581 c-19 -15 -34 -18 -74 -14 -42 4 -53 2 -69 -16 -42 -46
-16 -113 62 -161 26 -16 54 -36 63 -45 23 -22 31 -19 71 23 71 72 91 173 42
211 -33 26 -65 27 -95 2z m82 -11 c24 -13 26 -77 3 -123 -24 -48 -74 -97 -88
-86 -6 5 -33 24 -61 42 -27 17 -58 47 -68 65 -20 33 -20 34 0 60 26 35 56 39
84 11 16 -16 24 -19 27 -10 14 43 63 62 103 41z"/>
<path d="M1742 2258 c-13 -16 -6 -28 30 -51 73 -46 80 -141 22 -303 -38 -106
-39 -113 -39 -239 1 -113 4 -136 24 -180 47 -105 133 -178 245 -210 76 -22
226 -22 330 0 44 9 105 15 135 13 50 -3 56 -1 56 17 0 12 -11 25 -29 34 -26
12 -44 11 -153 -9 -287 -53 -452 0 -532 169 -23 51 -26 67 -25 171 0 108 3
121 37 215 52 139 58 210 22 298 -6 15 0 17 64 17 114 0 164 -34 192 -131 15
-50 27 -63 47 -47 26 22 -10 129 -60 175 -42 39 -94 54 -202 57 -55 2 -113 7
-127 10 -16 5 -29 3 -37 -6z"/>
<path d="M774 2205 c-4 -9 8 -31 30 -55 41 -46 41 -39 36 -291 -3 -177 2 -201
54 -257 57 -64 173 -86 249 -48 80 40 116 143 71 203 -25 33 -83 75 -98 70
-24 -8 -16 -42 14 -60 16 -10 37 -32 45 -48 14 -27 14 -33 0 -64 -23 -48 -60
-69 -120 -69 -60 0 -105 22 -137 66 -22 32 -23 38 -20 218 2 102 -1 204 -6
228 -6 23 -8 42 -7 42 15 0 164 -59 220 -88 200 -100 294 -206 295 -331 0
-113 -42 -181 -143 -230 -68 -33 -135 -46 -303 -60 -87 -7 -126 -15 -173 -37
-140 -62 -210 -212 -138 -292 59 -64 155 12 186 148 11 52 5 72 -22 68 -15 -2
-23 -16 -34 -57 -23 -93 -67 -146 -99 -120 -37 31 6 137 73 180 67 44 95 51
248 65 83 7 179 23 215 33 116 36 205 118 231 215 16 59 6 163 -21 215 -67
133 -256 257 -514 340 -109 35 -124 37 -132 16z"/>
<path d="M1403 2154 c-9 -24 10 -49 38 -49 20 0 24 5 24 30 0 25 -4 30 -28 33
-18 2 -29 -2 -34 -14z"/>
<path d="M1971 2131 c-13 -24 8 -55 34 -50 23 5 40 32 32 53 -9 22 -54 20 -66
-3z"/>
<path d="M1314 1244 c-99 -16 -141 -31 -127 -45 6 -6 32 -4 75 6 170 39 421
39 609 0 157 -33 332 -110 449 -196 65 -48 65 -48 -70 18 -349 171 -747 205
-1137 98 -83 -23 -113 -38 -101 -50 3 -4 48 5 99 19 393 106 767 76 1118 -90
51 -24 120 -62 152 -84 68 -47 79 -49 79 -16 0 39 -148 154 -288 225 -90 45
-251 97 -361 115 -116 20 -382 20 -497 0z"/>
<path d="M2354 1191 c-23 -10 -45 -25 -49 -32 -9 -13 -1 -12 75 16 35 14 51
15 73 6 38 -15 34 -25 -20 -44 -60 -21 -102 -22 -131 -1 -32 22 -43 7 -13 -17
31 -26 89 -24 173 5 l67 23 -22 21 c-24 23 -69 42 -95 42 -9 0 -36 -9 -58 -19z"/>
<path d="M1441 1113 c-24 -12 -39 -30 -53 -62 -10 -25 -26 -62 -36 -81 -9 -19
-18 -39 -21 -44 -2 -5 15 -6 39 -3 67 9 120 74 120 150 0 35 -18 15 -30 -33
-11 -47 -54 -100 -81 -100 -12 0 -12 0 6 51 24 69 35 86 71 105 19 10 34 22
34 26 0 12 -11 10 -49 -9z"/>
<path d="M1560 1103 c0 -50 39 -111 88 -140 26 -15 63 -39 83 -55 20 -15 40
-28 44 -28 4 0 5 29 3 65 -3 55 -8 69 -33 96 -42 43 -129 87 -140 70 -2 -5 20
-21 50 -35 63 -31 92 -63 101 -112 8 -42 1 -52 -22 -30 -9 9 -33 25 -54 36
-51 26 -89 73 -96 121 -7 44 -24 53 -24 12z"/>
<path d="M2463 808 c-37 -12 -41 -25 -17 -43 14 -10 18 -37 21 -155 5 -163 1
-190 -26 -190 -10 0 -21 -7 -25 -15 -4 -13 8 -15 75 -15 60 0 80 3 77 13 -3 6
-14 13 -26 15 -32 5 -35 30 -29 227 6 189 9 182 -50 163z"/>
<path d="M64 788 c-3 -4 6 -12 20 -17 13 -6 27 -18 30 -28 5 -20 9 -128 7
-240 -1 -70 -1 -71 -32 -82 -17 -6 -28 -14 -25 -19 6 -11 216 -9 271 3 80 16
130 76 141 167 11 96 -23 162 -104 201 -41 19 -64 22 -175 22 -71 1 -131 -3
-133 -7z m243 -17 c60 -28 94 -84 100 -163 6 -87 -22 -143 -90 -177 -41 -20
-51 -22 -76 -11 -58 23 -62 35 -67 196 -5 134 -4 149 12 161 25 18 72 16 121
-6z"/>
<path d="M2630 785 c-16 -19 -9 -49 13 -53 38 -7 66 49 31 62 -23 9 -30 8 -44
-9z"/>
<path d="M2030 774 c0 -7 13 -15 29 -19 16 -3 34 -12 40 -19 7 -8 10 -64 9
-151 -2 -147 -8 -165 -53 -165 -28 0 -40 -14 -22 -26 6 -5 86 -7 176 -4 l164
5 13 45 c16 54 16 50 6 50 -5 0 -15 -12 -22 -26 -8 -14 -27 -32 -42 -40 -38
-20 -111 -18 -137 4 -19 15 -22 25 -19 82 l3 65 39 -3 c52 -4 76 -18 76 -42 0
-11 6 -20 13 -20 8 0 12 22 13 75 0 75 -8 97 -20 50 -8 -32 -38 -47 -84 -43
l-37 3 0 80 0 80 44 3 c64 5 89 -4 106 -38 9 -17 19 -30 23 -30 12 0 1 81 -12
86 -6 2 -77 5 -158 7 -114 3 -148 1 -148 -9z"/>
<path d="M1542 750 c-29 -27 -28 -62 3 -98 14 -17 25 -33 25 -36 0 -3 -15 -12
-33 -20 -53 -22 -80 -63 -74 -113 6 -58 27 -87 76 -103 35 -11 46 -11 86 4 27
11 56 32 71 52 l27 34 34 -35 c36 -37 86 -48 96 -21 6 15 -2 23 -43 45 -14 7
-35 26 -48 41 l-22 29 22 46 c16 33 33 51 56 61 47 19 31 34 -39 34 -62 0 -68
-4 -44 -30 18 -20 6 -75 -16 -75 -9 0 -30 17 -49 38 -33 38 -33 39 -17 67 23
38 21 66 -5 84 -31 22 -80 20 -106 -4z m67 -18 c5 -9 7 -30 4 -45 -5 -27 -6
-27 -24 -11 -11 9 -19 27 -19 39 0 37 23 47 39 17z m43 -183 l63 -61 -38 -33
c-47 -41 -78 -47 -116 -24 -61 37 -64 89 -8 147 17 17 32 32 34 32 1 0 31 -27
65 -61z"/>
<path d="M776 661 c-4 -5 2 -16 12 -23 22 -16 46 -71 75 -172 12 -44 27 -81
32 -83 9 -2 95 201 95 225 0 5 12 17 26 27 33 21 24 30 -29 26 -51 -3 -58 -9
-33 -27 20 -14 20 -15 1 -67 -37 -107 -44 -108 -70 -11 -17 62 -17 68 -2 79
25 18 21 23 -23 23 -22 1 -49 3 -59 7 -11 3 -22 1 -25 -4z"/>
<path d="M1112 644 c-41 -32 -62 -73 -62 -119 0 -72 55 -135 119 -135 47 0
101 33 101 61 0 16 -3 19 -12 11 -23 -18 -76 -24 -100 -11 -34 17 -58 50 -58
82 l0 27 85 0 c70 0 87 3 92 16 8 22 -6 44 -47 72 -43 29 -77 28 -118 -4z m96
-13 c8 -5 12 -17 10 -27 -3 -16 -14 -20 -61 -22 -31 -2 -57 0 -57 4 0 4 10 18
22 31 22 23 62 30 86 14z"/>
<path d="M3036 650 c-87 -56 -90 -199 -4 -246 50 -28 158 0 158 41 0 18 -7 19
-49 4 -58 -20 -121 23 -121 83 l0 28 79 0 c107 0 115 4 95 41 -18 36 -69 69
-104 68 -14 0 -38 -9 -54 -19z m94 -25 c24 -29 4 -45 -55 -45 -30 0 -55 4 -55
8 0 5 9 18 20 30 24 25 72 29 90 7z"/>
<path d="M605 651 c-31 -13 -77 -60 -70 -71 3 -6 15 -10 26 -10 14 0 21 9 26
30 7 37 44 41 67 8 30 -43 21 -62 -44 -91 -84 -37 -103 -86 -48 -121 12 -7 28
-5 57 9 39 17 42 17 54 1 18 -25 66 -17 86 13 15 24 15 24 -6 19 -34 -9 -42
11 -40 99 2 67 -1 84 -17 102 -20 22 -55 26 -91 12z m65 -156 c0 -30 -35 -67
-58 -63 -10 2 -18 14 -20 30 -3 21 3 30 25 42 40 22 53 20 53 -9z"/>
<path d="M2792 637 c-44 -47 -18 -106 58 -131 42 -14 59 -39 44 -63 -23 -38
-104 -18 -104 24 0 8 -4 11 -10 8 -5 -3 -10 -19 -10 -34 0 -20 7 -31 25 -39
67 -31 135 5 135 70 0 47 -23 74 -67 83 -21 4 -44 11 -50 17 -22 18 -15 48 14
59 24 9 31 7 51 -16 26 -31 27 -31 37 13 l7 32 -54 0 c-44 0 -59 -4 -76 -23z"/>
<path d="M2623 638 c-26 -13 -30 -26 -9 -34 35 -13 30 -182 -5 -191 -41 -11
-16 -23 46 -23 66 0 81 10 44 30 -19 11 -20 19 -18 118 3 100 2 107 -17 109
-10 1 -29 -3 -41 -9z"/>
</g>
</svg>
